IKResults
version=1
nRows=10
nColumns=40
inDegrees=yes

Units are S.I. units (second, meters, Newtons, ...)
Angles are in degrees.

endheader
time	pelvis_tilt	pelvis_list	pelvis_rotation	pelvis_tx	pelvis_ty	pelvis_tz	hip_flexion_r	hip_adduction_r	hip_rotation_r	knee_angle_r	knee_angle_r_beta	ankle_angle_r	subtalar_angle_r	mtp_angle_r	hip_flexion_l	hip_adduction_l	hip_rotation_l	knee_angle_l	knee_angle_l_beta	ankle_angle_l	subtalar_angle_l	mtp_angle_l	lumbar_extension	lumbar_bending	lumbar_rotation	arm_flex_r	arm_add_r	arm_rot_r	elbow_flex_r	pro_sup_r	wrist_flex_r	wrist_dev_r	arm_flex_l	arm_add_l	arm_rot_l	elbow_flex_l	pro_sup_l	wrist_flex_l	wrist_dev_l
      0.49000000	     15.22956741	     -5.95443477	      5.06267600	     -0.43085949	      0.94810493	     -1.01902873	     -8.14357403	      7.07813492	    -25.78128510	    -12.49891281	     -0.21814718	      4.98941119	     13.13111838	      2.31258442	    -14.38119280	      9.10098588	      3.11071086	    -54.86649486	     -0.95760098	     -3.35460414	     18.49143538	     13.04807500	    -23.25532795	      8.23492140	     -3.70797343	     -1.43154316	    -10.11893467	     -5.03359166	     15.96758065	     89.95437384	      0.00000000	      0.00000000	      4.09584650	      9.99937224	      3.07739991	     25.27459168	     89.95437384	      0.00000000	      0.00000000
      0.50000000	     15.22113447	     -5.87073939	      4.95952181	     -0.42120662	      0.94887085	     -1.01790703	     -9.33777833	      7.27562877	    -25.40915402	    -11.43484001	     -0.19957561	      5.37058363	     14.29801884	      2.02094301	    -13.25941595	      8.78084817	      2.69881521	    -55.67259484	     -0.97167008	     -1.38194885	     18.18673882	     12.90864165	    -23.22706195	      8.07030003	     -3.48434224	     -1.08615596	    -10.11189023	     -5.44362322	     16.39887408	     89.95437384	      0.00000000	      0.00000000	      3.62760371	      9.82006650	      3.08088290	     24.02471791	     89.95437384	      0.00000000	      0.00000000
      0.51000000	     15.30061891	     -5.67076683	      4.57923857	     -0.41174735	      0.94971786	     -1.01650538	    -10.28527385	      7.14430525	    -25.44203125	    -11.14278709	     -0.19447832	      5.67418030	     14.38012680	      1.90975340	    -12.21276525	      8.43030482	      2.92518146	    -56.30216599	     -0.98265817	     -0.55828140	     18.15324544	     12.72611115	    -23.38971181	      7.67729967	     -3.08339974	     -0.63514144	    -10.12946937	     -5.45445576	     16.66522758	     89.95437384	      0.00000000	      0.00000000	      2.94227515	      9.73800212	      3.01772282	     23.35903422	     89.95437384	      0.00000000	      0.00000000
      0.52000000	     15.24453736	     -5.46812548	      4.28748089	     -0.40225289	      0.95023528	     -1.01543265	    -11.24031486	      7.11365512	    -24.88560787	    -10.46860422	     -0.18271161	      6.12616693	     14.89422783	      1.67471608	    -11.07858238	      7.91580684	      2.72745060	    -56.68673137	     -0.98937010	      1.06513718	     18.02055021	     12.46874823	    -23.34477449	      7.33689539	     -2.78744905	     -0.25231515	    -10.19657345	     -5.51821186	     17.06821058	     89.95437384	      0.00000000	      0.00000000	      2.32381733	      9.59119293	      2.89525757	     22.45881167	     89.95437384	      0.00000000	      0.00000000
      0.53000000	     15.17409400	     -5.27869105	      3.92386368	     -0.39297668	      0.95065516	     -1.01426141	    -12.00391279	      7.01522592	    -24.51509976	    -10.11076781	     -0.17646619	      6.44339538	     14.94055586	      1.43399553	     -9.91760729	      7.47818696	      2.74151437	    -56.90777117	     -0.99322798	      2.54489197	     17.82563259	     12.12070779	    -23.33922263	      6.98295011	     -2.36695294	      0.07879117	    -10.25908237	     -5.52457845	     17.56149429	     89.95437384	      0.00000000	      0.00000000	      1.68284426	      9.46872299	      2.81256303	     21.80403939	     89.95437384	      0.00000000	      0.00000000
      0.54000000	     15.07325245	     -5.10127361	      3.55284356	     -0.38390810	      0.95088475	     -1.01301852	    -12.64681477	      6.90721648	    -24.13058756	     -9.88384734	     -0.17250568	      6.70230653	     14.87862700	      1.18275100	     -8.65838263	      7.07461235	      2.77045953	    -56.99973242	     -0.99483300	      3.44299019	     17.69939319	     11.74028567	    -23.32085241	      6.62104102	     -1.95109104	      0.38811359	    -10.33185012	     -5.42661431	     18.14548026	     89.95437384	      0.00000000	      0.00000000	      1.03480848	      9.37474496	      2.71897530	     21.24069881	     89.95437384	      0.00000000	      0.00000000
      0.55000000	     14.94195744	     -4.92377574	      3.15180772	     -0.37491104	      0.95101105	     -1.01178191	    -13.17107961	      6.76351082	    -23.75361528	     -9.78193677	     -0.17072700	      6.92144020	     14.69479128	      0.93288123	     -7.41515663	      6.69447099	      2.89229546	    -56.87159156	     -0.99259652	      4.41883439	     17.60947892	     11.33580038	    -23.27846056	      6.25264369	     -1.51913457	      0.66234924	    -10.41721761	     -5.27992438	     18.84324340	     89.95437384	      0.00000000	      0.00000000	      0.37476247	      9.28619070	      2.62839851	     20.73024433	     89.95437384	      0.00000000	      0.00000000
      0.56000000	     14.83414206	     -4.66828922	      2.79689082	     -0.36570565	      0.95101282	     -1.01078064	    -13.69976801	      6.53907522	    -23.22382596	     -9.74004325	     -0.16999582	      7.19366906	     14.31658258	      0.57268822	     -6.24094159	      6.19999957	      2.93063365	    -56.52271601	     -0.98650750	      5.35926598	     17.54100763	     10.81194660	    -23.21798347	      5.83437240	     -1.15918449	      0.73587357	    -10.54821823	     -5.00803031	     19.86434732	     89.95437384	      0.00000000	      0.00000000	     -0.30077982	      9.18923520	      2.54843677	     20.20990830	     89.95437384	      0.00000000	      0.00000000
      0.57000000	     14.76057214	     -4.44026182	      2.39604548	     -0.35682512	      0.95106528	     -1.00966925	    -14.13996169	      6.29562518	    -22.70816244	     -9.88751021	     -0.17256961	      7.37694143	     13.85297480	      0.24317779	     -5.10528034	      5.82507778	      3.16436452	    -55.98375293	     -0.97710082	      6.88736816	     17.41497243	     10.28808703	    -23.25287337	      5.41188366	     -0.75299828	      0.86627506	    -10.67483312	     -4.68216536	     20.90810758	     89.95437384	      0.00000000	      0.00000000	     -0.92938737	      9.10088564	      2.50036015	     19.78592985	     89.95437384	      0.00000000	      0.00000000
      0.58000000	     14.56728260	     -4.31952429	      2.17047133	     -0.34792522	      0.95080641	     -1.00865708	    -14.37201726	      6.17855704	    -22.51979288	    -10.16809547	     -0.17746674	      7.52932118	     13.40820303	      0.15033415	     -3.73063072	      5.67217433	      3.38137101	    -55.43068226	     -0.96744791	      7.04766637	     17.21998649	     10.02563428	    -23.11492629	      5.15535094	     -0.58175543	      1.15050821	    -10.70309415	     -4.59435487	     21.67960254	     89.95437384	      0.00000000	      0.00000000	     -1.70925837	      9.06956773	      2.43056839	     19.54019455	     89.95437384	      0.00000000	      0.00000000
